<?xml version="1.0" encoding="utf-8"?>
<!-- Generator: Adobe Illustrator 24.0.2, SVG Export Plug-In . SVG Version: 6.00 Build 0)  -->
<svg version="1.1" id="Layer_1" xmlns="http://www.w3.org/2000/svg" xmlns:xlink="http://www.w3.org/1999/xlink" x="0px" y="0px"
	 viewBox="0 0 24 24" style="enable-background:new 0 0 24 24;" xml:space="preserve">
<style type="text/css">
	.st0{fill:#FFFFFF;}
</style>
<g id="info">
</g>
<g id="icons">
	<g id="delete">
		<path class="st0" d="M18.9,8H5.1C4.5,8,4,8.5,4.1,9.1l1.6,13.1c0.1,1,1,1.7,2,1.7h8.5c1,0,1.9-0.7,2-1.7l1.6-13.1
			C19.9,8.5,19.5,8,18.9,8z"/>
		<path class="st0" d="M20,2h-5l0,0c0-1.1-0.9-2-2-2h-2C9.9,0,9,0.9,9,2l0,0H4C2.9,2,2,2.9,2,4v1c0,0.6,0.4,1,1,1h18
			c0.6,0,1-0.4,1-1V4C22,2.9,21.1,2,20,2z"/>
	</g>
</g>
</svg>
