<?xml version="1.0" encoding="UTF-8"?><svg id="a" xmlns="http://www.w3.org/2000/svg" viewBox="0 0 45.22 41.45"><path id="b" d="M12.54,32.03C6.6,27.76,5.7,13.88,5.66,1.88h32.02c0,1.19-.01,2.39-.02,3.61-.11,10.48-.22,21.28,4.19,26.53H12.54ZM37.68,35.8H5.65v-12.84c1.18,4.85,3.06,8.8,6.07,10.8.15.1.34.16.52.16h25.44v1.88ZM32.69,39.56H3.22l1.88-1.88h30.41l-2.83,1.88ZM3.77,4.05v32.3l-1.88,1.88V6.88l1.88-2.83ZM44.8,32.18c-5.51-3.65-5.38-15.88-5.26-26.67.02-1.55.03-3.08.03-4.57,0-.52-.42-.94-.94-.94H4.71s-.06.02-.09.02c-.06,0-.13.02-.19.04-.06.02-.11.04-.16.07-.05.03-.1.06-.15.1-.05.04-.09.09-.14.14-.02.02-.05.04-.06.06L.16,6.07c-.1.15-.16.33-.16.52v33.91c0,.12.02.25.07.36.03.06.07.11.11.16.03.05.05.1.09.14.03.03.07.04.1.07.06.05.13.1.2.13.11.05.24.07.36.07h32.03c.19,0,.37-.05.52-.16l5.65-3.77s.04-.04.06-.06c.05-.04.09-.08.14-.14.04-.05.07-.09.1-.15.03-.05.05-.11.07-.16.02-.06.03-.12.04-.19,0-.03.02-.06.02-.09v-2.83h4.71c.42,0,.78-.27.9-.67.12-.4-.03-.83-.38-1.06" style="fill:#fff;"/></svg>