<?xml version="1.0" encoding="UTF-8"?><svg id="a" xmlns="http://www.w3.org/2000/svg" viewBox="0 0 23.94 45.03"><g id="b"><polygon points="7.4 1.03 7.55 9.1 16.06 8.95 16.84 2.87 7.69 0 7.4 1.03" style="fill:#ef7827;"/><path d="M23.49,43.85v-13.91c0-.19-.08-.38-.21-.51-.14-.14-.32-.21-.51-.21H1.17c-.4,0-.72.32-.72.72v13.91M1.89,43.85v-13.18h20.15v13.18" style="fill:#fff;"/><path d="M23.49,43.85v-13.91c0-.19-.08-.38-.21-.51-.14-.14-.32-.21-.51-.21H1.17c-.4,0-.72.32-.72.72v13.91M1.89,43.85v-13.18h20.15v13.18" style="fill:none; stroke:#fff; stroke-miterlimit:10; stroke-width:.88px;"/><path d="M23.28,37.61c-.13-.14-.31-.23-.51-.23H1.17c-.4,0-.72.34-.72.77s.32.77.72.77h21.6c.4,0,.72-.34.72-.77,0-.21-.08-.41-.21-.54" style="fill:#fff;"/><path d="M23.28,37.61c-.13-.14-.31-.23-.51-.23H1.17c-.4,0-.72.34-.72.77s.32.77.72.77h21.6c.4,0,.72-.34.72-.77,0-.21-.08-.41-.21-.54Z" style="fill:none; stroke:#fff; stroke-miterlimit:10; stroke-width:.88px;"/><path d="M16.86,8.6c-.13-.13-.31-.21-.51-.21H7.58c-.4,0-.72.33-.72.73,0,6.94-1.77,10.71-4.21,15.93-.68,1.46-1.39,2.97-2.15,4.71-.16.37.01.79.38.95.37.16.79-.01.95-.38.75-1.73,1.45-3.23,2.13-4.67,2.44-5.21,4.23-9.02,4.34-15.82h7.33c.12,6.8,1.9,10.61,4.34,15.82.68,1.45,1.38,2.95,2.13,4.68.16.37.58.54.95.38.37-.16.54-.58.38-.95-.75-1.74-1.46-3.25-2.14-4.71-2.45-5.22-4.21-8.99-4.21-15.93,0-.2-.08-.38-.21-.51" style="fill:#fff;"/><path d="M16.86,8.6c-.13-.13-.31-.21-.51-.21H7.58c-.4,0-.72.33-.72.73,0,6.94-1.77,10.71-4.21,15.93-.68,1.46-1.39,2.97-2.15,4.71-.16.37.01.79.38.95.37.16.79-.01.95-.38.75-1.73,1.45-3.23,2.13-4.67,2.44-5.21,4.23-9.02,4.34-15.82h7.33c.12,6.8,1.9,10.61,4.34,15.82.68,1.45,1.38,2.95,2.13,4.68.16.37.58.54.95.38.37-.16.54-.58.38-.95-.75-1.74-1.46-3.25-2.14-4.71-2.45-5.22-4.21-8.99-4.21-15.93,0-.2-.08-.38-.21-.51Z" style="fill:none; stroke:#fff; stroke-miterlimit:10; stroke-width:.88px;"/><rect x=".45" y="42.89" width="22.98" height="1.7" style="fill:#fff;"/><rect x=".45" y="42.89" width="22.98" height="1.7" style="fill:none; stroke:#fff; stroke-miterlimit:10; stroke-width:.88px;"/></g></svg>