<svg width="180" height="66" viewBox="0 0 180 66" fill="none" xmlns="http://www.w3.org/2000/svg">
<g clip-path="url(#clip0_205_1057)">
<path d="M38.21 9.34C38.21 9.34 44.33 9.29 47.88 9.97C50.48 10.35 51.93 11.76 52.57 14.01C53.82 17.92 54.97 24.22 55.48 30.96C55.49 31.16 55.51 31.41 55.53 31.6H64.86C64.79 22.56 63.86 14.03 62.58 8.67C61.91 5.47 60.05 3.34 56.44 2.53C52.57 1.56 47.36 0.870002 41.61 0.530002C41.59 0.530002 39.81 0.440002 39.77 0.440002L38.21 9.35V9.34Z" fill="white"/>
<path d="M9.43 35.04C9.41 34.82 9.4 34.61 9.38 34.4C8.87 27.67 9.06 21.28 9.71 17.22C10.01 14.91 11.23 13.3 13.75 12.53C17.84 11.17 23.97 10.14 30.7 9.62998C32.1 9.52998 33.48 9.44998 34.79 9.38998L36.38 0.28998C35.09 0.25998 33.78 0.22998 32.43 0.22998C22.95 0.22998 14.28 1.02998 8.4 2.48998C4.8 3.28998 2.93 5.41998 2.26 8.62998C0.93 14.25 0 23.2 0 32.67C0 34.02 0.06 36.67 0.06 36.67L9.43 35.04Z" fill="white"/>
<path d="M29.11 55.95C24.4 56.09 20.11 55.9 16.96 55.36C14.36 54.98 12.91 53.57 12.27 51.32C11.11 47.58 10.28 43.1 9.78 38.39L0.220001 40.07C0.480001 46.02 1.38 52.91 2.28 56.68C2.95 59.88 4.81 62.01 8.42 62.82C13.58 64.11 20.99 64.89 29.12 65.05V55.95H29.11Z" fill="white"/>
<path d="M36.07 65.09V52.61H32.43V65.09H36.07ZM39.25 55.48V60.83C39.25 63.86 40.84 65.38 43.65 65.38C44.66 65.38 45.5 65.27 45.91 65.14V62.35C45.65 62.42 45.16 62.49 44.61 62.49C43.44 62.49 42.9 61.92 42.91 60.59V55.49H46.08V52.65H42.91V48.87L39.25 49.51V52.64H37.42V55.48H39.24H39.25ZM51.56 65.41C53.03 65.41 54.09 64.81 54.84 63.8L54.89 65.1H58.3V57.77C58.3 54.21 56.31 52.31 52.75 52.31C50.92 52.31 49.4 52.6 47.93 53.15V56.08C49.38 55.53 50.82 55.19 52.16 55.19C53.84 55.19 54.78 55.96 54.78 57.31C54.49 57.29 54.01 57.26 53.55 57.26C49.7 57.26 47.27 58.85 47.27 61.56C47.28 63.92 48.94 65.41 51.56 65.41ZM53.9 59.52C54.19 59.52 54.65 59.54 54.82 59.57V60.56C54.82 61.88 53.92 62.8 52.65 62.79C51.52 62.79 50.82 62.28 50.82 61.27C50.82 60.12 51.92 59.52 53.9 59.52ZM64.31 65.42C65.83 65.42 66.86 64.87 67.68 63.76L67.73 65.11H71.24V52.63H67.6V59.99C67.6 61.51 66.85 62.46 65.62 62.46C64.39 62.46 63.77 61.64 63.77 60.13V52.62H60.11V60.72C60.11 63.59 61.75 65.42 64.32 65.42H64.31ZM68.92 50.95V47.78L62.84 48.86V50.95H68.92Z" fill="white"/>
<path d="M34.26 51.32C35.54 51.32 36.42 50.46 36.43 49.23C36.43 47.98 35.54 47.14 34.27 47.14C33 47.14 32.11 48 32.11 49.23C32.1 50.47 32.98 51.32 34.26 51.32Z" fill="white"/>
<path d="M32.65 37.65C31.8 37.65 31.21 37.96 30.75 38.57L30.73 37.82H28.76V44.78H30.82V40.69C30.82 39.85 31.23 39.31 31.92 39.31C32.61 39.31 32.95 39.77 32.95 40.61V44.79H35.01V40.27C35 38.67 34.08 37.65 32.64 37.65H32.65Z" fill="white"/>
<path d="M23.49 44.9599C24.34 44.9599 24.92 44.6499 25.38 44.0399L25.4 44.7899H27.37V37.8299H25.32V41.9199C25.32 42.7599 24.91 43.2999 24.22 43.2999C23.53 43.2999 23.19 42.8399 23.19 41.9999V37.8199H21.13V42.3399C21.14 43.9499 22.05 44.9599 23.5 44.9599H23.49Z" fill="white"/>
<path d="M16.58 44.79H14.52V35.8H20.31V37.54H16.57V39.62H19.64V41.36H16.58V44.8H16.57L16.58 44.79Z" fill="white"/>
<path d="M39.04 44.9599C38.47 44.9599 37.96 44.8099 37.53 44.5199C37.09 44.2299 36.76 43.8099 36.52 43.2699C36.28 42.7299 36.16 42.0899 36.16 41.3399C36.16 40.5899 36.27 39.9399 36.53 39.3899C36.77 38.8399 37.12 38.4199 37.55 38.1099C37.98 37.7999 38.49 37.6599 39.07 37.6599C39.82 37.6599 40.43 37.9199 40.87 38.4399V35.1899H42.92V44.7799H41.06L41.04 43.9399C40.84 44.2599 40.57 44.4999 40.22 44.6899C39.85 44.8899 39.46 44.9699 39.04 44.9699V44.9599ZM39.57 43.3299C40 43.3299 40.32 43.1599 40.56 42.7999C40.8 42.4599 40.92 41.9599 40.92 41.3299C40.92 40.6999 40.81 40.1899 40.56 39.8399C40.31 39.4899 40 39.3099 39.57 39.3099C39.14 39.3099 38.82 39.4799 38.58 39.8399C38.34 40.1999 38.22 40.6799 38.22 41.3099C38.22 41.9399 38.33 42.4499 38.58 42.7999C38.82 43.1399 39.15 43.3299 39.57 43.3299Z" fill="white"/>
<path d="M54.55 44.96C53.83 44.96 53.19 44.81 52.66 44.52C52.13 44.23 51.72 43.81 51.43 43.26C51.14 42.71 50.99 42.06 50.99 41.32C50.99 40.58 51.14 39.95 51.45 39.4C51.76 38.85 52.17 38.42 52.71 38.11C53.25 37.8 53.88 37.65 54.6 37.65C54.92 37.65 55.23 37.7 55.54 37.76C55.84 37.84 56.09 37.94 56.26 38.07V39.7C55.87 39.41 55.41 39.27 54.85 39.27C54.29 39.27 53.85 39.44 53.53 39.8C53.21 40.14 53.06 40.64 53.06 41.27C53.06 41.9 53.22 42.39 53.55 42.75C53.87 43.12 54.32 43.3 54.87 43.3C55.47 43.3 55.96 43.15 56.35 42.85V44.47C56.15 44.61 55.89 44.72 55.57 44.81C55.25 44.9 54.9 44.94 54.54 44.94L54.55 44.96ZM53.7 44.66H54.83L54.58 45.53C55.01 45.56 55.34 45.7 55.59 45.94C55.84 46.18 55.97 46.47 55.97 46.81C55.97 47.28 55.79 47.65 55.43 47.91C55.07 48.17 54.56 48.3 53.89 48.3C53.63 48.3 53.33 48.25 53.02 48.19V47.18C53.15 47.21 53.27 47.24 53.4 47.25C53.53 47.26 53.63 47.27 53.72 47.27C54.24 47.27 54.5 47.11 54.5 46.78C54.5 46.48 54.22 46.33 53.68 46.33H53.27L53.71 44.65L53.7 44.66Z" fill="white"/>
<path d="M61.55 36.99C61.27 36.99 61.03 36.93 60.81 36.81C60.59 36.69 60.41 36.57 60.24 36.45C60.07 36.33 59.92 36.27 59.77 36.27C59.52 36.27 59.39 36.47 59.39 36.86V36.96H58.16V36.86C58.16 36.24 58.29 35.77 58.54 35.45C58.79 35.13 59.15 34.97 59.63 34.97C59.91 34.97 60.16 35.03 60.37 35.15C60.58 35.27 60.77 35.39 60.94 35.51C61.1 35.62 61.26 35.69 61.4 35.69C61.65 35.69 61.78 35.49 61.78 35.1V35H63.03V35.1C63.03 35.72 62.9 36.19 62.65 36.51C62.39 36.83 62.03 36.99 61.55 36.99Z" fill="white"/>
<path d="M67.82 44.96C67.13 44.96 66.53 44.81 66.02 44.51C65.51 44.21 65.11 43.79 64.84 43.25C64.57 42.71 64.41 42.07 64.41 41.33C64.41 40.59 64.55 39.95 64.84 39.4C65.13 38.85 65.52 38.42 66.04 38.12C66.56 37.82 67.16 37.67 67.83 37.67C68.5 37.67 69.12 37.82 69.63 38.12C70.14 38.42 70.54 38.84 70.81 39.38C71.08 39.92 71.24 40.56 71.24 41.3C71.24 42.04 71.1 42.68 70.81 43.23C70.52 43.78 70.13 44.21 69.63 44.51C69.11 44.81 68.51 44.96 67.83 44.96H67.82ZM67.82 43.33C68.25 43.33 68.57 43.16 68.81 42.8C69.05 42.46 69.17 41.96 69.17 41.33C69.17 40.7 69.06 40.19 68.81 39.84C68.56 39.49 68.25 39.31 67.82 39.31C67.39 39.31 67.07 39.48 66.83 39.84C66.59 40.2 66.47 40.68 66.47 41.31C66.47 41.94 66.58 42.45 66.83 42.8C67.06 43.14 67.39 43.33 67.82 43.33Z" fill="white"/>
<path d="M60.26 37.66C59.24 37.66 58.39 37.82 57.56 38.13V39.76C58.36 39.45 59.18 39.27 59.94 39.27C60.88 39.27 61.41 39.7 61.41 40.45C61.25 40.44 60.97 40.43 60.72 40.43C58.56 40.43 57.19 41.32 57.19 42.82C57.19 44.13 58.12 44.96 59.59 44.97C60.42 44.97 61 44.64 61.43 44.07L61.45 44.79H63.37V40.71C63.37 38.72 62.25 37.65 60.25 37.65L60.26 37.66ZM61.42 42.26C61.42 43 60.91 43.5 60.2 43.5C59.57 43.5 59.18 43.21 59.18 42.65C59.18 42.01 59.8 41.67 60.9 41.67C61.06 41.67 61.31 41.68 61.42 41.69V42.25V42.26Z" fill="white"/>
<path d="M46.87 37.66C45.85 37.66 45 37.82 44.17 38.13V39.76C44.97 39.45 45.79 39.27 46.55 39.27C47.49 39.27 48.02 39.7 48.02 40.45C47.86 40.44 47.58 40.43 47.33 40.43C45.17 40.43 43.8 41.32 43.8 42.82C43.8 44.13 44.73 44.96 46.2 44.97C47.03 44.97 47.61 44.64 48.04 44.07L48.06 44.79H49.98V40.71C49.98 38.72 48.86 37.65 46.86 37.65L46.87 37.66ZM48.03 42.26C48.03 43 47.52 43.5 46.81 43.5C46.18 43.5 45.79 43.21 45.79 42.65C45.79 42.01 46.41 41.67 47.51 41.67C47.67 41.67 47.92 41.68 48.03 41.69V42.25V42.26Z" fill="white"/>
<path d="M126.24 44.87H115.62V28.8H126V31.89H119.26V35.18H124.81V38.27H119.26V41.77H126.24V44.86V44.87Z" fill="white"/>
<path d="M132.22 45.18C131.46 45.18 130.72 45.1 130.01 44.94C129.3 44.78 128.67 44.55 128.13 44.25V41.42C128.67 41.75 129.26 42.01 129.9 42.18C130.54 42.35 131.19 42.44 131.84 42.44C133.11 42.44 133.74 42.05 133.74 41.27C133.74 40.95 133.58 40.69 133.25 40.48C132.92 40.27 132.29 40.04 131.36 39.79C129.17 39.17 128.07 37.92 128.07 36.03C128.07 34.86 128.55 33.91 129.51 33.2C130.47 32.49 131.75 32.13 133.35 32.13C133.94 32.13 134.52 32.19 135.1 32.32C135.68 32.45 136.17 32.62 136.56 32.84V35.63C135.59 35.12 134.55 34.87 133.44 34.87C132.22 34.87 131.61 35.23 131.61 35.94C131.61 36.24 131.76 36.49 132.06 36.68C132.36 36.87 132.96 37.09 133.87 37.35C135.09 37.68 135.98 38.16 136.54 38.79C137.1 39.42 137.37 40.23 137.37 41.23C137.37 42.44 136.91 43.4 135.99 44.11C135.07 44.82 133.81 45.18 132.2 45.18H132.22Z" fill="white"/>
<path d="M145.17 45.18C143.88 45.18 142.77 44.92 141.84 44.39C140.9 43.87 140.18 43.12 139.66 42.14C139.14 41.16 138.89 40.01 138.89 38.68C138.89 37.35 139.16 36.24 139.7 35.25C140.24 34.27 140.99 33.5 141.95 32.95C142.91 32.4 144.02 32.13 145.29 32.13C145.86 32.13 146.42 32.2 146.96 32.34C147.5 32.48 147.93 32.67 148.25 32.89V35.82C147.57 35.31 146.73 35.06 145.75 35.06C144.77 35.06 143.97 35.37 143.4 36C142.84 36.63 142.55 37.5 142.55 38.63C142.55 39.76 142.84 40.62 143.42 41.27C144 41.92 144.78 42.25 145.77 42.25C146.83 42.25 147.71 41.98 148.39 41.44V44.34C148.04 44.59 147.58 44.8 147.01 44.95C146.44 45.1 145.83 45.18 145.18 45.18H145.17Z" fill="white"/>
<path d="M155.81 45.18C154.59 45.18 153.52 44.91 152.62 44.38C151.72 43.85 151.01 43.09 150.51 42.12C150.01 41.14 149.76 40 149.76 38.68C149.76 37.36 150.01 36.21 150.51 35.23C151.01 34.25 151.72 33.48 152.63 32.94C153.54 32.4 154.6 32.13 155.81 32.13C157.02 32.13 158.1 32.4 159 32.93C159.9 33.46 160.61 34.22 161.11 35.19C161.61 36.17 161.86 37.31 161.86 38.63C161.86 39.95 161.61 41.1 161.11 42.08C160.61 43.06 159.91 43.83 159 44.37C158.1 44.91 157.03 45.18 155.81 45.18ZM155.81 42.25C156.56 42.25 157.14 41.94 157.56 41.31C157.98 40.68 158.19 39.81 158.19 38.68C158.19 37.55 157.98 36.65 157.56 36.01C157.14 35.38 156.56 35.06 155.81 35.06C155.06 35.06 154.48 35.37 154.06 36C153.64 36.63 153.43 37.5 153.43 38.63C153.43 39.76 153.64 40.66 154.06 41.3C154.48 41.93 155.06 42.25 155.81 42.25Z" fill="white"/>
<path d="M163.74 44.87V27.73H167.36V44.87H163.74Z" fill="white"/>
<path d="M173.31 45.18C172.09 45.18 171.1 44.85 170.36 44.19C169.61 43.53 169.24 42.65 169.24 41.54C169.24 40.13 169.79 39.03 170.88 38.24C171.98 37.45 173.52 37.06 175.52 37.06C175.69 37.06 175.87 37.06 176.04 37.07C176.21 37.07 176.39 37.09 176.56 37.11C176.4 35.71 175.5 35.01 173.87 35.01C172.57 35.01 171.39 35.38 170.35 36.13V33.3C171.43 32.52 172.8 32.13 174.47 32.13C176.25 32.13 177.61 32.6 178.56 33.53C179.51 34.47 179.99 35.81 179.99 37.55V44.86H177.04L176.85 43.55C176.48 44.06 175.99 44.45 175.36 44.74C174.73 45.03 174.05 45.17 173.3 45.17L173.31 45.18ZM176.6 39.35C176.36 39.33 176.06 39.33 175.7 39.33C174.73 39.33 173.98 39.48 173.45 39.79C172.92 40.1 172.65 40.54 172.65 41.11C172.65 41.6 172.81 41.99 173.13 42.28C173.45 42.57 173.87 42.71 174.39 42.71C175.01 42.71 175.53 42.49 175.96 42.04C176.39 41.6 176.6 41.05 176.6 40.4V39.35Z" fill="white"/>
<path d="M94 0H93.03V65.38H94V0Z" fill="white"/>
</g>
<defs>
<clipPath id="clip0_205_1057">
<rect width="180" height="65.42" fill="white"/>
</clipPath>
</defs>
</svg>
